<svg width="213" height="70" viewBox="0 0 213 70" fill="none" xmlns="http://www.w3.org/2000/svg">
<path d="M18.0807 0.149902H15.0683V54.3738H18.0807V0.149902Z" fill="#EF3E60"/>
<path d="M45.1879 69.4364V66.4237H33.138C28.1468 66.4237 24.1005 62.3777 24.1005 57.3861V0.149902H21.0878V57.3861H21.088C21.088 64.0412 26.4831 69.4364 33.138 69.4364H45.1879Z" fill="#F36D21"/>
<path d="M12.0497 12.1994V0.149902H9.03738V12.1994C9.03738 13.8634 7.6882 15.2121 6.02489 15.2121H0V18.2246H6.02489C9.35221 18.2246 12.0497 15.5267 12.0497 12.1994Z" fill="#00A9A4"/>
<path d="M30.1199 57.3922V21.2426C30.1199 19.5794 31.4684 18.2303 33.1322 18.2303H45.1822V15.218H33.1322C29.8046 15.218 27.1073 17.9153 27.1073 21.2426V57.3922C27.1073 60.7197 29.8046 63.4163 33.1322 63.4163H45.1822V60.4044H33.1322C31.4684 60.4044 30.1199 59.0555 30.1199 57.3922Z" fill="#8CC63F"/>
<path d="M64.1614 47.7877C63.6753 47.8624 62.217 47.9748 61.8059 47.9748C59.8237 47.9748 59.2627 46.853 59.2627 44.8339V35.0375H64.4231V32.5323H59.2627V27.4468H57.8047L56.496 28.4563V32.5323H53.3176V35.0375H56.496V45.2455C56.496 49.2832 58.2163 50.6297 61.5438 50.6297C62.2544 50.6297 63.5629 50.48 64.1614 50.3304V47.7877ZM74.8175 32.1203C69.2462 32.1203 67.6382 34.7005 67.6382 38.365V43.9361C67.6382 49.2089 71.5647 50.6671 75.6029 50.6671C77.6589 50.6671 79.3794 50.5173 81.3237 50.2557V47.6757C79.7536 47.8624 77.4351 48.0493 75.865 48.0493C73.0977 48.0493 70.4053 47.3765 70.4053 44.2735V42.6276H81.9222V38.365C81.9222 34.7005 80.3895 32.1203 74.8175 32.1203ZM70.4053 40.1222V38.0286C70.4053 35.5234 72.1628 34.5512 74.8175 34.5512C77.884 34.5512 79.1551 35.8972 79.1551 37.9541V40.1222H70.4053ZM98.001 50.2557V47.6757C98.001 47.6757 94.5233 48.0493 93.2524 48.0493C90.8593 48.0493 88.7648 47.5634 88.7648 44.6097V38.1779C88.7648 35.224 90.8593 34.7381 93.2146 34.7381C94.7851 34.7381 97.6646 35.0745 97.6646 35.0745V32.4946C97.6646 32.4946 94.1121 32.1203 92.8778 32.1203C87.3069 32.1203 85.9975 34.7005 85.9975 38.365V44.6466C85.9975 49.4705 88.8774 50.6671 92.8778 50.6671C94.5611 50.6671 98.001 50.2557 98.001 50.2557ZM115.949 50.2557V37.8041C115.949 34.5136 114.079 32.1203 110.041 32.1203C109.742 32.1203 109.331 32.158 108.994 32.2701L104.395 35.4856V23.7075H101.628V50.2557H104.395V37.6168L108.508 35.3361C109.069 35.0375 109.78 34.8876 110.265 34.8876C112.284 34.8876 113.182 36.4581 113.182 38.7017V50.2557H115.949ZM135.169 50.2557V37.8041C135.169 34.5136 133.486 32.1203 129.261 32.1203C128.962 32.1203 128.551 32.158 128.213 32.2701L123.614 35.4856V32.5323H120.847V50.2557H123.614V37.6168L127.727 35.3361C128.288 35.0375 128.999 34.8876 129.485 34.8876C131.504 34.8876 132.401 35.8972 132.401 38.3277V50.2557H135.169ZM147.471 32.1203C143.694 32.1203 140.067 33.4294 140.067 38.2527V44.5349C140.067 49.3578 143.694 50.6671 147.471 50.6671C151.247 50.6671 154.874 49.3578 154.874 44.5349V38.2527C154.874 33.4294 151.247 32.1203 147.471 32.1203ZM147.471 34.5512C150.387 34.5512 152.107 35.7103 152.107 38.2902V44.4596C152.107 47.0773 150.387 48.2369 147.471 48.2369C144.554 48.2369 142.834 47.0773 142.834 44.4596V38.2902C142.834 35.7103 144.554 34.5512 147.471 34.5512ZM171.813 50.2557V47.6757C171.813 47.6757 168.335 48.0493 167.064 48.0493C164.671 48.0493 162.577 47.5634 162.577 44.6097V38.1779C162.577 35.224 164.671 34.7381 167.027 34.7381C168.597 34.7381 171.477 35.0745 171.477 35.0745V32.4946C171.477 32.4946 167.924 32.1203 166.69 32.1203C161.118 32.1203 159.81 34.7005 159.81 38.365V44.6466C159.81 49.4705 162.689 50.6671 166.69 50.6671C168.373 50.6671 171.813 50.2557 171.813 50.2557ZM179.179 23.7075H176.412V28.1944H179.179V23.7075ZM179.179 32.5323H176.412V50.2561H179.179V32.5323ZM194.585 47.7877C194.099 47.8624 192.64 47.9748 192.229 47.9748C190.247 47.9748 189.687 46.853 189.687 44.8339V35.0375H194.847V32.5323H189.687V27.4468H188.228L186.919 28.4563V32.5323H183.741V35.0375H186.919V45.2455C186.919 49.2832 188.639 50.6297 191.967 50.6297C192.678 50.6297 193.987 50.48 194.585 50.3304V47.7877ZM203.97 30.1389L207.896 24.5303H204.643L201.614 30.1389H203.97ZM205.241 32.1203C199.669 32.1203 198.062 34.7005 198.062 38.365V43.9361C198.062 49.2089 201.988 50.6671 206.026 50.6671C208.083 50.6671 209.802 50.5173 211.748 50.2557V47.6757C210.178 47.8624 207.858 48.0493 206.288 48.0493C203.521 48.0493 200.829 47.3765 200.829 44.2735V42.6276H212.346V38.365C212.346 34.7005 210.813 32.1203 205.241 32.1203ZM200.829 40.1222V38.0286C200.829 35.5234 202.586 34.5512 205.241 34.5512C208.307 34.5512 209.578 35.8972 209.578 37.9541V40.1222H200.829Z" fill="#6A6F71"/>
<path d="M58.1013 67.7172C56.9903 67.7172 56.1908 67.385 56.1908 66.0458V64.301C56.1908 63.2838 56.5542 62.5671 58.1013 62.5671C58.4439 62.5671 59.4305 62.671 59.4305 62.671V63.3876C59.4305 63.3876 58.6308 63.2939 58.1947 63.2939C57.5406 63.2939 56.9592 63.4291 56.9592 64.2492V66.0352C56.9592 66.8554 57.5406 66.9904 58.2051 66.9904C58.5581 66.9904 59.5238 66.8866 59.5238 66.8866V67.6032C59.5238 67.6032 58.5685 67.7172 58.1013 67.7172Z" fill="#6A6F71"/>
<path d="M60.6112 67.6057V62.684H61.3795V63.8261H61.4314C61.4314 63.8261 61.8363 62.6422 63.2381 62.6321V63.4419C61.9402 63.4419 61.4106 64.6673 61.3795 64.7398V67.6057H60.6112Z" fill="#6A6F71"/>
<path d="M67.1116 64.7893V64.1871C67.1116 63.616 66.7584 63.242 65.907 63.242C65.1698 63.242 64.6818 63.5122 64.6818 64.2078V64.7893H67.1116ZM67.88 64.301V65.4849H64.6818V65.942C64.6818 66.8035 65.4293 66.9904 66.1977 66.9904C66.6338 66.9904 67.2776 66.9385 67.7138 66.8866V67.6032C67.1737 67.6759 66.6963 67.7172 66.125 67.7172C65.0037 67.7172 63.9135 67.3125 63.9135 65.8483V64.301C63.9135 63.2838 64.3599 62.5671 65.907 62.5671C67.4543 62.5671 67.88 63.2838 67.88 64.301Z" fill="#6A6F71"/>
<path d="M72.0418 65.2773L70.5985 65.3499C69.9859 65.3811 69.6641 65.6718 69.6641 66.0767V66.3467C69.6641 66.6895 69.9237 66.9803 70.3805 66.9803C70.5985 66.9803 70.7854 66.9177 71.045 66.7726L72.0418 66.1909V65.2773ZM72.0418 66.7828L70.7647 67.6759C70.6713 67.7071 70.5467 67.7172 70.4739 67.7172C69.4875 67.7172 68.9059 67.1568 68.9059 66.3363V66.0767C68.9059 65.3811 69.3939 64.7475 70.6713 64.6956L72.0418 64.6437V64.1972C72.0418 63.4395 71.4915 63.2838 70.827 63.2838C70.3493 63.2838 69.6848 63.3564 69.3214 63.3876V62.671C69.3214 62.671 70.5051 62.5671 71.0243 62.5671C71.938 62.5671 72.8103 62.8892 72.8103 64.2284V67.6033H72.0418V66.7828Z" fill="#6A6F71"/>
<path d="M76.8186 67.6218C76.6525 67.6631 76.2891 67.7049 76.0918 67.7049C75.1675 67.7049 74.6899 67.3309 74.6899 66.2095V63.375H73.8073V62.6793H74.6899V61.5474L75.0533 61.2671H75.4584V62.6793H76.8913V63.375H75.4584V66.0955C75.4584 66.656 75.6142 66.9675 76.1645 66.9675C76.2787 66.9675 76.6836 66.9363 76.8186 66.9155V67.6218Z" fill="#6A6F71"/>
<path d="M78.0457 67.6127V62.6907H78.814V67.6127H78.0457ZM78.0457 61.486V60.24H78.814V61.486H78.0457Z" fill="#6A6F71"/>
<path d="M83.6691 62.6841H84.4687L82.7761 67.6058H81.6753L79.9828 62.6841H80.7824L82.1739 66.9099H82.2777L83.6691 62.6841Z" fill="#6A6F71"/>
<path d="M88.4465 64.7893V64.1871C88.4465 63.616 88.0935 63.242 87.2419 63.242C86.5047 63.242 86.0167 63.5122 86.0167 64.2078V64.7893H88.4465ZM89.2149 64.301V65.4849H86.0167V65.942C86.0167 66.8035 86.7642 66.9904 87.5326 66.9904C87.9689 66.9904 88.6127 66.9385 89.0487 66.8866V67.6032C88.5088 67.6759 88.0312 67.7172 87.4601 67.7172C86.3385 67.7172 85.2483 67.3125 85.2483 65.8483V64.301C85.2483 63.2838 85.6948 62.5671 87.2419 62.5671C88.7891 62.5671 89.2149 63.2838 89.2149 64.301Z" fill="#6A6F71"/>
<path d="M92.75 67.6127V62.6907H93.5183V67.6127H92.75ZM92.75 61.486V60.24H93.5183V61.486H92.75Z" fill="#6A6F71"/>
<path d="M98.3637 67.6033V64.2909C98.3637 63.616 98.1145 63.3356 97.5536 63.3356C97.4189 63.3356 97.2216 63.3772 97.0659 63.4602L95.9235 64.0934V67.6033H95.1551V62.6815H95.9235V63.5016L97.2006 62.6087C97.2941 62.5777 97.4083 62.5671 97.4915 62.5671C98.6648 62.5671 99.1321 63.2316 99.1321 64.1453V67.6033H98.3637Z" fill="#6A6F71"/>
<path d="M103.694 63.4902C103.694 63.4902 102.947 63.272 102.469 63.272C101.732 63.272 101.254 63.5627 101.254 64.2584V65.9721C101.254 66.6572 101.535 66.9586 102.064 66.9586C102.199 66.9586 102.386 66.9168 102.552 66.834L103.694 66.2003V63.4902ZM103.694 67.6127V66.7922L102.417 67.6854C102.324 67.7166 102.209 67.7267 102.126 67.7267C101.005 67.7267 100.486 67.0624 100.486 66.1484V64.3103C100.486 63.293 100.932 62.5763 102.479 62.5763C102.843 62.5763 103.393 62.6595 103.694 62.7945V60.24H104.463V67.6127H103.694Z" fill="#6A6F71"/>
<path d="M106.584 62.6841V65.9755C106.584 66.5984 106.833 66.9517 107.394 66.9517C107.529 66.9517 107.716 66.9099 107.883 66.8271L109.025 66.1935V62.6841H109.793V67.6058H109.025V66.7853L107.747 67.6785C107.654 67.7096 107.54 67.7198 107.456 67.7198C106.335 67.7198 105.816 67.0555 105.816 66.1416V62.6841H106.584Z" fill="#6A6F71"/>
<path d="M114.641 66.3986C114.641 67.2811 114.028 67.7172 112.792 67.7172C111.899 67.7172 111.141 67.6033 111.141 67.6033V66.8972C111.141 66.8972 112.096 67.0112 112.657 67.0112C113.571 67.0112 113.924 66.8453 113.924 66.3675V66.1496C113.924 65.8691 113.789 65.6199 113.27 65.5474L112.273 65.4122C111.588 65.3186 111.121 64.8619 111.121 64.2182V63.8857C111.121 63.0032 111.743 62.5671 112.917 62.5671C113.519 62.5671 113.966 62.6296 114.36 62.671V63.3666C114.36 63.3666 113.602 63.2733 113.031 63.2733C112.19 63.2733 111.837 63.4395 111.837 63.9275V64.1351C111.837 64.4155 111.972 64.6649 112.491 64.7373L113.488 64.8725C114.184 64.9658 114.641 65.4224 114.641 66.0666V66.3986Z" fill="#6A6F71"/>
<path d="M118.539 67.6218C118.373 67.6631 118.01 67.7049 117.812 67.7049C116.888 67.7049 116.41 67.3309 116.41 66.2095V63.375H115.528V62.6793H116.41V61.5474L116.774 61.2671H117.179V62.6793H118.611V63.375H117.179V66.0955C117.179 66.656 117.334 66.9675 117.885 66.9675C117.999 66.9675 118.404 66.9363 118.539 66.9155V67.6218Z" fill="#6A6F71"/>
<path d="M119.584 67.6057V62.684H120.352V63.8261H120.404C120.404 63.8261 120.809 62.6422 122.211 62.6321V63.4419C120.913 63.4419 120.383 64.6673 120.352 64.7398V67.6057H119.584Z" fill="#6A6F71"/>
<path d="M123.251 67.6127V62.6907H124.019V67.6127H123.251ZM123.251 61.486V60.24H124.019V61.486H123.251Z" fill="#6A6F71"/>
<path d="M128.854 64.7893V64.1871C128.854 63.616 128.501 63.242 127.65 63.242C126.912 63.242 126.424 63.5122 126.424 64.2078V64.7893H128.854ZM129.622 64.301V65.4849H126.424V65.942C126.424 66.8035 127.172 66.9904 127.94 66.9904C128.376 66.9904 129.02 66.9385 129.457 66.8866V67.6032C128.916 67.6759 128.439 67.7172 127.868 67.7172C126.746 67.7172 125.656 67.3125 125.656 65.8483V64.301C125.656 63.2838 126.102 62.5671 127.65 62.5671C129.197 62.5671 129.622 63.2838 129.622 64.301Z" fill="#6A6F71"/>
<path d="M134.22 66.3986C134.22 67.2811 133.607 67.7172 132.372 67.7172C131.479 67.7172 130.721 67.6033 130.721 67.6033V66.8972C130.721 66.8972 131.676 67.0112 132.237 67.0112C133.151 67.0112 133.504 66.8453 133.504 66.3675V66.1496C133.504 65.8691 133.369 65.6199 132.849 65.5474L131.853 65.4122C131.167 65.3186 130.7 64.8619 130.7 64.2182V63.8857C130.7 63.0032 131.323 62.5671 132.496 62.5671C133.099 62.5671 133.545 62.6296 133.94 62.671V63.3666C133.94 63.3666 133.182 63.2733 132.611 63.2733C131.77 63.2733 131.416 63.4395 131.416 63.9275V64.1351C131.416 64.4155 131.551 64.6649 132.071 64.7373L133.068 64.8725C133.763 64.9658 134.22 65.4224 134.22 66.0666V66.3986Z" fill="#6A6F71"/>
<path d="M140.535 67.6127L138.531 65.4942H138.385V67.6127H137.617V60.24H138.385V64.7986H138.489L140.483 62.6907H141.459L139.185 65.0997L141.563 67.6127H140.535Z" fill="#6A6F71"/>
<path d="M145.623 67.6033V64.2909C145.623 63.616 145.373 63.3356 144.813 63.3356C144.678 63.3356 144.481 63.3772 144.325 63.4602L143.182 64.0934V67.6033H142.414V62.6815H143.182V63.5016L144.46 62.6087C144.553 62.5777 144.667 62.5671 144.75 62.5671C145.924 62.5671 146.391 63.2316 146.391 64.1453V67.6033H145.623Z" fill="#6A6F71"/>
<path d="M148.513 64.2803V65.9939C148.513 66.7207 148.991 67.0423 149.801 67.0423C150.611 67.0423 151.088 66.7207 151.088 65.9939V64.2803C151.088 63.5641 150.611 63.242 149.801 63.242C148.991 63.242 148.513 63.5641 148.513 64.2803ZM151.857 64.2701V66.0147C151.857 67.3538 150.849 67.7172 149.801 67.7172C148.752 67.7172 147.745 67.3538 147.745 66.0147V64.2701C147.745 62.9305 148.752 62.5671 149.801 62.5671C150.849 62.5671 151.857 62.9305 151.857 64.2701Z" fill="#6A6F71"/>
<path d="M155.808 62.6841H156.972L158.031 66.9309H158.134L159.183 62.6841H160.003L158.685 67.6058H157.501L156.442 63.3173H156.338L155.279 67.6058H154.095L152.776 62.6841H153.597L154.645 66.9309H154.749L155.808 62.6841Z" fill="#6A6F71"/>
<path d="M161.957 60.24H161.188V67.6127H161.957V60.24Z" fill="#6A6F71"/>
<path d="M166.791 64.7893V64.1871C166.791 63.616 166.438 63.242 165.587 63.242C164.85 63.242 164.361 63.5122 164.361 64.2078V64.7893H166.791ZM167.56 64.301V65.4849H164.361V65.942C164.361 66.8035 165.109 66.9904 165.877 66.9904C166.314 66.9904 166.957 66.9385 167.393 66.8866V67.6032C166.854 67.6759 166.376 67.7172 165.805 67.7172C164.683 67.7172 163.593 67.3125 163.593 65.8483V64.301C163.593 63.2838 164.039 62.5671 165.587 62.5671C167.134 62.5671 167.56 63.2838 167.56 64.301Z" fill="#6A6F71"/>
<path d="M171.885 63.4902C171.885 63.4902 171.137 63.272 170.66 63.272C169.922 63.272 169.445 63.5627 169.445 64.2584V65.9721C169.445 66.6572 169.725 66.9586 170.255 66.9586C170.39 66.9586 170.577 66.9168 170.743 66.834L171.885 66.2003V63.4902ZM171.885 67.6127V66.7922L170.608 67.6854C170.514 67.7166 170.4 67.7267 170.317 67.7267C169.196 67.7267 168.676 67.0624 168.676 66.1484V64.3103C168.676 63.293 169.123 62.5763 170.67 62.5763C171.033 62.5763 171.584 62.6595 171.885 62.7945V60.24H172.653V67.6127H171.885Z" fill="#6A6F71"/>
<path d="M174.757 64.1454V64.5194C174.757 65.1944 175.245 65.4745 175.982 65.4745C176.719 65.4745 177.208 65.1944 177.208 64.5194V64.1454C177.208 63.4497 176.719 63.1696 175.982 63.1696C175.224 63.1696 174.757 63.4497 174.757 64.1454ZM177.831 68.3098C177.831 67.9983 177.519 67.7282 177.083 67.6763L175.536 67.4892C174.861 67.6449 174.622 67.9564 174.622 68.3512V68.455C174.622 69.0054 175.266 69.2963 176.18 69.2963C176.979 69.2963 177.831 69.0159 177.831 68.4444V68.3098ZM173.999 64.426V64.3012C173.999 63.2838 174.435 62.5671 175.982 62.5671C176.346 62.5671 176.647 62.6087 176.896 62.6815H178.744V63.3773H178.641L177.55 63.2109C177.861 63.5017 177.965 63.9483 177.965 64.3012V64.426C177.965 65.7447 177.031 66.1081 175.982 66.1081C175.744 66.1081 175.723 66.1081 175.557 66.0874L175.453 66.2639C175.38 66.3885 175.349 66.4508 175.349 66.5754C175.349 66.8038 175.598 66.8767 175.909 66.918L177.145 67.0844C178.017 67.209 178.537 67.6243 178.537 68.216V68.4237C178.537 69.4415 177.332 69.9399 176.169 69.9399C174.913 69.9399 173.916 69.4832 173.916 68.4656V68.3824C173.916 67.9253 174.165 67.4478 174.944 67.1672C174.788 67.0946 174.58 66.9286 174.58 66.6792V66.5133C174.58 66.4614 174.58 66.3885 174.612 66.3366L174.923 65.9524C174.394 65.7553 173.999 65.2567 173.999 64.426Z" fill="#6A6F71"/>
<path d="M182.796 64.7893V64.1871C182.796 63.616 182.442 63.242 181.591 63.242C180.854 63.242 180.366 63.5122 180.366 64.2078V64.7893H182.796ZM183.564 64.301V65.4849H180.366V65.942C180.366 66.8035 181.113 66.9904 181.882 66.9904C182.318 66.9904 182.962 66.9385 183.398 66.8866V67.6032C182.858 67.6759 182.38 67.7172 181.809 67.7172C180.688 67.7172 179.597 67.3125 179.597 65.8483V64.301C179.597 63.2838 180.044 62.5671 181.591 62.5671C183.138 62.5671 183.564 63.2838 183.564 64.301Z" fill="#6A6F71"/>
<path d="M188.737 67.7172C187.626 67.7172 186.826 67.385 186.826 66.0458V64.301C186.826 63.2838 187.19 62.5671 188.737 62.5671C189.079 62.5671 190.066 62.671 190.066 62.671V63.3876C190.066 63.3876 189.266 63.2939 188.83 63.2939C188.176 63.2939 187.595 63.4291 187.595 64.2492V66.0352C187.595 66.8554 188.176 66.9904 188.841 66.9904C189.194 66.9904 190.159 66.8866 190.159 66.8866V67.6032C190.159 67.6032 189.204 67.7172 188.737 67.7172Z" fill="#6A6F71"/>
<path d="M194.367 64.7893V64.1871C194.367 63.616 194.013 63.242 193.162 63.242C192.425 63.242 191.937 63.5122 191.937 64.2078V64.7893H194.367ZM195.135 64.301V65.4849H191.937V65.942C191.937 66.8035 192.684 66.9904 193.453 66.9904C193.889 66.9904 194.533 66.9385 194.969 66.8866V67.6032C194.429 67.6759 193.951 67.7172 193.38 67.7172C192.259 67.7172 191.168 67.3125 191.168 65.8483V64.301C191.168 63.2838 191.615 62.5671 193.162 62.5671C194.71 62.5671 195.135 63.2838 195.135 64.301Z" fill="#6A6F71"/>
<path d="M199.473 67.6033V64.2909C199.473 63.616 199.224 63.3356 198.664 63.3356C198.528 63.3356 198.331 63.3772 198.175 63.4602L197.033 64.0934V67.6033H196.265V62.6815H197.033V63.5016L198.31 62.6087C198.404 62.5777 198.518 62.5671 198.601 62.5671C199.774 62.5671 200.242 63.2316 200.242 64.1453V67.6033H199.473Z" fill="#6A6F71"/>
<path d="M204.243 67.6218C204.076 67.6631 203.713 67.7049 203.516 67.7049C202.592 67.7049 202.114 67.3309 202.114 66.2095V63.375H201.231V62.6793H202.114V61.5474L202.477 61.2671H202.882V62.6793H204.315V63.375H202.882V66.0955C202.882 66.656 203.038 66.9675 203.589 66.9675C203.703 66.9675 204.108 66.9363 204.243 66.9155V67.6218Z" fill="#6A6F71"/>
<path d="M208.407 64.7893V64.1871C208.407 63.616 208.056 63.242 207.203 63.242C206.466 63.242 205.978 63.5122 205.978 64.2078V64.7893H208.407ZM209.177 64.301V65.4849H205.978V65.942C205.978 66.8035 206.726 66.9904 207.494 66.9904C207.931 66.9904 208.575 66.9385 209.011 66.8866V67.6032C208.471 67.6759 207.991 67.7172 207.421 67.7172C206.3 67.7172 205.21 67.3125 205.21 65.8483V64.301C205.21 63.2838 205.656 62.5671 207.203 62.5671C208.751 62.5671 209.177 63.2838 209.177 64.301Z" fill="#6A6F71"/>
<path d="M210.371 67.6057V62.684H211.139V63.8261H211.191C211.191 63.8261 211.598 62.6422 213 62.6321V63.4419C211.702 63.4419 211.17 64.6673 211.139 64.7398V67.6057H210.371Z" fill="#6A6F71"/>
</svg>
